<?xml version="1.0" standalone="no"?>
<!DOCTYPE svg PUBLIC "-//W3C//DTD SVG 20010904//EN"
 "http://www.w3.org/TR/2001/REC-SVG-20010904/DTD/svg10.dtd">
<svg version="1.0" xmlns="http://www.w3.org/2000/svg"
 width="30pt" height="30pt" viewBox="0 0 816.000000 1280.000000"
 preserveAspectRatio="xMidYMid meet">
<metadata>
Created by potrace 1.15, written by Peter Selinger 2001-2017
</metadata>
<g transform="translate(0.000000,1280.000000) scale(0.100000,-0.100000)"
fill="#000000" stroke="none">
<path d="M6939 12788 c-9 -7 -65 -101 -123 -208 -59 -107 -111 -199 -116 -204
-5 -5 -51 10 -112 37 -127 56 -331 137 -420 166 -76 25 -98 20 -123 -29 -8
-16 -195 -433 -416 -927 -220 -494 -401 -899 -403 -900 -1 -1 -66 20 -145 48
-151 52 -190 58 -214 34 -9 -8 -177 -306 -375 -662 -198 -357 -870 -1568
-1494 -2693 -625 -1125 -1465 -2639 -1868 -3365 -494 -890 -733 -1329 -733
-1349 0 -30 15 -48 113 -128 l45 -37 7 -273 c5 -150 12 -403 16 -563 l9 -290
-119 -232 c-65 -127 -118 -241 -118 -253 0 -12 15 -37 33 -55 l34 -34 -200
-348 c-109 -191 -203 -359 -209 -373 -12 -33 -3 -67 25 -84 15 -10 121 -22
360 -41 302 -24 340 -25 361 -12 12 8 87 119 167 246 124 199 147 230 164 225
46 -14 74 -15 93 -5 12 6 94 113 183 237 89 124 172 232 183 239 12 8 248 125
526 261 l505 247 67 -24 c52 -18 74 -21 95 -13 24 8 99 137 528 909 2979 5355
3948 7101 3953 7117 10 38 -11 66 -113 152 -94 79 -104 90 -92 105 27 31 1126
1668 1138 1695 10 20 10 31 0 49 -12 22 -199 164 -383 291 -54 37 -98 72 -98
77 0 5 52 98 115 206 63 108 115 207 115 219 0 30 -42 77 -139 158 -163 136
-381 257 -616 341 -151 55 -184 61 -206 43z"/>
</g>
</svg>
